<?xml version="1.0" standalone="no"?>
<!DOCTYPE svg PUBLIC "-//W3C//DTD SVG 20010904//EN"
 "http://www.w3.org/TR/2001/REC-SVG-20010904/DTD/svg10.dtd">
<svg version="1.0" xmlns="http://www.w3.org/2000/svg"
 width="778.000000pt" height="434.000000pt" viewBox="0 0 778.000000 434.000000"
 preserveAspectRatio="xMidYMid meet">

<g transform="translate(0.000000,434.000000) scale(0.100000,-0.100000)"
fill="#000000" stroke="none">
<path d="M6370 4296 c0 -2 51 -80 113 -173 272 -407 441 -826 532 -1319 74
-398 75 -889 5 -1285 -89 -494 -288 -975 -573 -1381 l-76 -108 309 0 308 0 54
62 c334 387 565 909 653 1477 151 977 -87 1969 -633 2636 -36 44 -71 83 -76
87 -11 8 -616 11 -616 4z"/>
<path d="M770 4243 c-67 -76 -183 -239 -255 -359 -235 -389 -377 -828 -437
-1349 -20 -170 -16 -648 6 -820 82 -646 304 -1185 663 -1610 l59 -70 312 -3
312 -2 -49 67 c-357 492 -574 1071 -637 1706 -20 198 -14 627 10 807 81 590
281 1112 595 1559 36 52 70 101 74 108 7 11 -50 13 -302 13 l-309 0 -42 -47z"/>
<path d="M4214 4253 c12 -79 97 -865 94 -873 -2 -4 -205 50 -453 121 -247 70
-451 126 -453 124 -8 -8 -99 -610 -93 -616 3 -3 177 -18 386 -34 209 -15 395
-30 413 -34 l34 -6 -271 -364 c-149 -200 -271 -366 -271 -370 0 -3 131 -72
291 -153 l290 -147 26 57 c21 48 234 533 295 672 l20 45 194 -387 c107 -214
197 -388 200 -388 6 0 504 264 541 287 22 13 18 20 -252 380 -151 201 -273
368 -271 370 4 4 142 15 610 47 121 9 221 18 224 20 3 4 -57 499 -73 593 l-6
32 -47 -14 c-174 -52 -876 -244 -879 -241 -4 3 78 762 93 874 l6 42 -327 0
-327 0 6 -37z"/>
<path d="M2513 865 c-81 -22 -132 -52 -193 -114 -164 -164 -168 -418 -9 -586
95 -100 196 -141 333 -133 114 7 182 36 262 110 177 166 187 423 24 601 -104
114 -268 162 -417 122z"/>
</g>
</svg>
